<svg xmlns="http://www.w3.org/2000/svg" viewBox="0 0 1600 900" role="img" aria-labelledby="title desc">
  <title id="title">Minnesota Cannabis Delivery Guide</title>
  <desc id="desc">Stylized cannabis-themed editorial cover image with blue premium design.</desc>
  <defs>
    <linearGradient id="bg" x1="0" y1="0" x2="1" y2="1">
      <stop offset="0%" stop-color="#040b1a" />
      <stop offset="100%" stop-color="#071a33" />
    </linearGradient>
    <radialGradient id="glow" cx="0.2" cy="0.2" r="0.8">
      <stop offset="0%" stop-color="#38bdf8" stop-opacity="0.5" />
      <stop offset="100%" stop-color="#3b82f6" stop-opacity="0" />
    </radialGradient>
  </defs>
  <rect width="1600" height="900" fill="url(#bg)" />
  <rect width="1600" height="900" fill="url(#glow)" />
  <g opacity="0.35" stroke="#60a5fa" stroke-width="2" fill="none">
    <path d="M260 740C330 560 540 430 780 430" />
    <path d="M410 760C480 590 680 490 940 500" />
    <path d="M540 780C620 630 850 560 1120 590" />
  </g>
  <g transform="translate(1130 170) scale(1.5)">
    <path d="M80 18C72 40 71 60 80 82C89 60 88 40 80 18ZM56 31C52 54 56 72 72 90C74 66 68 48 56 31ZM104 31C92 48 86 66 88 90C104 72 108 54 104 31ZM34 54C36 78 48 93 70 102C60 80 48 64 34 54ZM126 54C112 64 100 80 90 102C112 93 124 78 126 54ZM59 99C59 119 66 134 80 144C94 134 101 119 101 99C92 106 85 110 80 112C75 110 68 106 59 99Z" stroke="#7dd3fc" stroke-width="5" stroke-linecap="round" stroke-linejoin="round" fill="none" />
    <path d="M80 78V140" stroke="#7dd3fc" stroke-width="4" stroke-linecap="round" />
  </g>
  <text x="120" y="210" fill="#7dd3fc" font-family="Arial, sans-serif" font-size="30" letter-spacing="6">HIGH SOCIETY JOURNAL</text>
  <text x="120" y="330" fill="#ffffff" font-family="Arial, sans-serif" font-size="68" font-weight="700">Minnesota Cannabis Delivery</text>
  <text x="120" y="408" fill="#bfdbfe" font-family="Arial, sans-serif" font-size="60" font-weight="700">Guide 2026</text>
  <text x="120" y="500" fill="#dbeafe" font-family="Arial, sans-serif" font-size="34">Know the process. Choose your format. Order with confidence.</text>
</svg>
